Coordinates
version=1
nRows=34
nColumns=19
inDegrees=yes

Units are S.I. units (second, meters, Newtons, ...)
If the header above contains a line with 'inDegrees', this indicates whether rotational values are in degrees (yes) or radians (no).

endheader
time	pelvis_tilt	pelvis_list	pelvis_rotation	pelvis_tx	pelvis_ty	pelvis_tz	hip_flexion_r	hip_adduction_r	hip_rotation_r	knee_angle_r	knee_angle_r_beta	ankle_angle_r	hip_flexion_l	hip_adduction_l	hip_rotation_l	knee_angle_l	knee_angle_l_beta	ankle_angle_l
     16.84000000	     -6.68097168	      7.55995590	     11.13111365	      2.37158758	      0.95166438	      0.97303961	    -17.53117343	     -5.83678576	    -16.58577178	     61.56469198	      1.07450658	    -15.60001235	     31.60209607	     15.20511690	     -8.61821732	     17.34934360	      0.30280317	     -7.79871014
     16.84666667	     -6.37878572	      8.00346080	     11.58860525	      2.37027381	      0.94810865	      0.97279186	    -16.23984106	     -6.85352738	    -16.93434974	     66.30864092	      1.15730411	    -15.10630727	     31.10193077	     15.71787743	     -9.04486510	     18.90577604	      0.32996804	     -6.53275131
     16.85333333	     -6.22638338	      8.20464641	     12.02065227	      2.36862967	      0.94411544	      0.97280874	    -14.53100052	     -7.55206155	    -16.85161765	     71.03627275	      1.23981685	    -14.40186437	     30.92905398	     15.95272676	     -9.11701296	     21.17755648	      0.36961809	     -4.56941500
     16.86000000	     -5.86013944	      8.48183564	     12.38519058	      2.36693491	      0.94007353	      0.97310678	    -12.96941877	     -8.29537178	    -16.65334206	     75.63763625	      1.32012579	    -13.61504168	     30.54919309	     16.15921631	     -8.99407356	     23.94644852	      0.41794437	     -1.84884471
     16.86666667	     -5.87394931	      8.41394857	     12.62533697	      2.36491211	      0.93539177	      0.97380619	    -10.63244981	     -8.66460748	    -15.93485242	     80.24745634	      1.40058233	    -12.67238296	     30.72743978	     16.02332569	     -8.57733465	     27.22227867	      0.47511839	      1.30407668
     16.87333333	     -5.64409821	      8.35306789	     12.71546557	      2.36283999	      0.93078782	      0.97474091	     -8.42823989	     -9.01063398	    -15.08139893	     84.66065730	      1.47760722	    -11.70907940	     30.58762986	     15.82095342	     -7.98244579	     30.67985905	      0.53546455	      4.97082810
     16.88000000	     -5.47220648	      8.17452044	     12.70019737	      2.36055239	      0.92602017	      0.97585152	     -5.95283822	     -9.25214211	    -14.05265284	     88.94965418	      1.55246433	    -10.67533501	     30.44592456	     15.52262953	     -7.17537461	     34.19529977	      0.59682057	      8.85023063
     16.88666667	     -5.25168073	      7.94463537	     12.57311564	      2.35811213	      0.92135016	      0.97714160	     -3.36244243	     -9.42118624	    -12.89216542	     93.01921906	      1.62349164	     -9.65084598	     30.10259518	     15.17088818	     -6.26102439	     37.55702901	      0.65549381	     12.79821717
     16.89333333	     -4.94311859	      7.66265609	     12.36699951	      2.35556417	      0.91691919	      0.97850906	     -0.72585689	     -9.51914678	    -11.67257802	     96.83147684	      1.69002809	     -8.63206447	     29.48137188	     14.74002471	     -5.33315756	     40.69848536	      0.71032257	     16.63825172
     16.90000000	     -4.65146855	      7.33856688	     12.10615635	      2.35284546	      0.91276195	      0.97995392	      2.07922569	     -9.56364019	    -10.39971234	    100.36906780	      1.75177070	     -7.67143188	     28.66045013	     14.24181823	     -4.44672187	     43.47317883	      0.75875011	     20.22112133
     16.90666667	     -4.40870035	      7.00862114	     11.84246468	      2.34997104	      0.90894969	      0.98140059	      5.05315947	     -9.60128357	     -9.13524594	    103.59504226	      1.80807458	     -6.77592000	     27.64178424	     13.72735398	     -3.59640605	     45.80256075	      0.79940549	     23.44436137
     16.91333333	     -4.20850375	      6.61384781	     11.57403961	      2.34697274	      0.90554713	      0.98289239	      8.19692926	     -9.53246737	     -7.87972595	    106.46411668	      1.85814937	     -5.99281621	     26.44869984	     13.08835977	     -2.85210805	     47.70456025	      0.83260164	     26.25393318
     16.92000000	     -4.05020046	      6.22206133	     11.35091972	      2.34401732	      0.90261987	      0.98433909	     11.42678117	     -9.44268100	     -6.70626851	    108.93206533	      1.90122320	     -5.26456201	     25.02941604	     12.41932158	     -2.15310625	     49.11550886	      0.85722734	     28.64415134
     16.92666667	     -3.98952960	      5.80648889	     11.20326660	      2.34105523	      0.90010963	      0.98565685	     14.79635973	     -9.32086894	     -5.64776696	    110.99553141	      1.93723748	     -4.60729703	     23.49151275	     11.70372660	     -1.50664331	     50.07807748	      0.87402734	     30.58204525
     16.93333333	     -3.64454798	      5.43458235	     11.16897754	      2.33848428	      0.89859149	      0.98663480	     17.70864064	     -9.25791847	     -4.86423551	    112.50028131	      1.96350032	     -3.93656439	     21.32195115	     11.00042905	     -0.74746002	     50.48498138	      0.88112915	     32.13085799
     16.94000000	     -4.04637512	      4.89420788	     11.02015759	      2.33575920	      0.89661413	      0.98786416	     21.64946438	     -8.91605231	     -3.84697290	    113.76035194	      1.98549270	     -3.45804439	     19.91599795	     10.08072403	     -0.38672036	     50.65372000	      0.88407419	     33.19827194
     16.94666667	     -3.92521457	      4.40014237	     11.19063013	      2.33376703	      0.89608308	      0.98834112	     24.63290806	     -8.74025210	     -3.41642723	    114.33382683	      1.99550172	     -2.87236710	     17.57548767	      9.27450788	      0.46763701	     50.22714680	      0.87662909	     33.70605890
     16.95333333	     -4.42632863	      3.85569840	     11.01857619	      2.33196588	      0.89508316	      0.98904269	     28.42291997	     -8.41472124	     -2.62964898	    114.66603266	      2.00129981	     -2.37108200	     15.85300308	      8.30272937	      0.64032140	     49.59818038	      0.86565155	     34.17426297
     16.96000000	     -4.63595695	      3.25366140	     11.20320768	      2.33081499	      0.89525294	      0.98896533	     31.50435177	     -8.21181631	     -2.43992156	    114.38597853	      1.99641194	     -1.80935268	     13.55968096	      7.37944705	      1.34504804	     48.50162938	      0.84651313	     34.07077067
     16.96666667	     -5.02169795	      2.68463592	     10.98442300	      2.33020148	      0.89571091	      0.98914970	     34.73555175	     -7.78456057	     -1.91669378	    113.76500237	      1.98557386	     -1.27723562	     11.29016352	      6.37585344	      1.48865563	     47.02288453	      0.82070416	     33.50427810
     16.97333333	     -5.56983146	      1.98567723	     11.07315997	      2.33010907	      0.89657494	      0.98866868	     37.81769251	     -7.51767663	     -1.91333154	    112.68632910	      1.96674746	     -0.73382853	      9.10316067	      5.38185980	      2.01213110	     45.30148612	      0.79066009	     32.71484029
     16.98000000	     -5.92712081	      1.40613557	     10.60530706	      2.33075442	      0.89827092	      0.98860848	     40.56379055	     -6.93663588	     -1.51140891	    111.23351199	      1.94139102	     -0.24832599	      6.48546543	      4.33861627	      1.79373532	     43.08306648	      0.75194136	     30.80539393
     16.98666667	     -6.26866639	      0.75197213	     10.18720367	      2.33193335	      0.90042163	      0.98835788	     43.00247973	     -6.34114550	     -1.40240193	    109.40548693	      1.90948597	      0.26119426	      3.76318810	      3.27795304	      1.63596206	     40.60010030	      0.70860543	     28.59124875
     16.99333333	     -6.38908770	      0.03882076	      9.73820050	      2.33388124	      0.90346346	      0.98802663	     44.84704433	     -5.64193672	     -1.50905051	    107.12216057	      1.86963440	      0.77725436	      0.67942366	      2.13849890	      1.35899340	     37.74862893	      0.65883786	     25.86037604
     17.00000000	     -6.89731088	     -0.61874148	      9.04171824	      2.33595281	      0.90623021	      0.98799003	     47.00617397	     -4.84947706	     -1.45635159	    104.62431035	      1.82603869	      1.21257636	     -1.94463181	      1.17833192	      0.73491716	     34.86942761	      0.60858632	     22.43787627
     17.00666667	     -7.86356275	     -1.33743113	      8.42335295	      2.33840139	      0.90881593	      0.98794302	     49.40406846	     -4.16592972	     -1.64240404	    101.82008590	      1.77709574	      1.49762012	     -3.99611199	      0.27533467	      0.16407027	     31.98025129	      0.55816068	     18.33830747
     17.01333333	     -7.79093657	     -1.95123006	      7.45080140	      2.34143107	      0.91276585	      0.98839577	     50.35854259	     -3.13280080	     -1.75841799	     98.65485323	      1.72185201	      1.92525715	     -7.32571052	     -0.66504695	     -1.20124546	     28.69037211	      0.50074146	     13.70184726
     17.02000000	     -8.24593748	     -2.56204780	      6.58846553	      2.34449975	      0.91623102	      0.98886011	     51.66127141	     -2.27640556	     -2.02815260	     95.23283232	      1.66212648	      2.22021829	     -9.85984579	     -1.43166775	     -2.43694433	     25.68308691	      0.44825443	      8.61621539
     17.02666667	     -8.98755044	     -2.98813913	      5.60860348	      2.34760866	      0.91927179	      0.98959037	     53.08558974	     -1.50366529	     -2.17216165	     91.60519446	      1.59881226	      2.42161251	    -11.90040429	     -1.90145789	     -3.89164196	     22.96129922	      0.40075027	      3.31743211
     17.03333333	     -9.35891879	     -3.43525299	      4.76527916	      2.35071183	      0.92283344	      0.99032170	     53.79705265	     -0.76506009	     -2.52752117	     87.62143166	      1.52928248	      2.65211385	    -14.12950727	     -2.38340506	     -5.20226844	     20.47256152	      0.35731360	     -1.97656337
     17.04000000	    -10.01436315	     -3.63248203	      3.90423436	      2.35364240	      0.92585580	      0.99121156	     54.63260165	     -0.23470803	     -2.76105512	     83.45024158	      1.45648148	      2.79794191	    -15.71598157	     -2.55719583	     -6.52246529	     18.56639870	      0.32404479	     -7.09228239
     17.04666667	    -10.43390683	     -3.80374595	      3.21568753	      2.35640220	      0.92907592	      0.99204233	     54.93789270	      0.16976203	     -3.17276400	     78.96626148	      1.37822126	      2.92635201	    -17.21925501	     -2.72883828	     -7.55239716	     17.19856146	      0.30017152	    -11.77286567
     17.05333333	    -10.92282228	     -3.79191440	      2.58940711	      2.35887376	      0.93195974	      0.99293602	     55.11910296	      0.40387620	     -3.55027964	     74.26240560	      1.29612349	      2.96485622	    -18.24755443	     -2.73604323	     -8.37252051	     16.56253826	      0.28907083	    -15.83989010
     17.06000000	    -11.26933688	     -3.74199676	      2.12827468	      2.36105287	      0.93480984	      0.99376884	     54.90791900	      0.49610238	     -4.10571549	     69.29100679	      1.20935621	      2.91612745	    -19.03353535	     -2.76143467	     -8.78566787	     16.64988520	      0.29059532	    -19.14498699
